# xmcd
#
# Track frame offsets: 
#        150
#        15854
#        35072
#        51316
#        66265
#        84702
#        99932
#        116908
#        132265
#        149675
#        163179
#        180971
#        197669
#        216587
#
# Disc length: 3103 seconds
#
# Revision: 0
# Processed by: cddbd v1.5.2PL0 Copyright (c) Steve Scherf et al.
# Submitted via: ExactAudioCopy v1.3
#
DISCID=cf0c1d0e
DTITLE=Checkmate - El Club del Jump
DYEAR=2016
DGENRE=Blues
TTITLE0=Rhythm And Jump
TTITLE1=Don't Worry
TTITLE2=5.10.15 Hour
TTITLE3=She's Playing With My Heart
TTITLE4=La Calabrisela
TTITLE5=Ain't Got You
TTITLE6=Don't Touch Me
TTITLE7=Buffalo Jump
TTITLE8=Dance And Feel The Blues
TTITLE9=Speedy Gonzalez
TTITLE10=Lonesome Train
TTITLE11=Red Hot Shuffle
TTITLE12=It's My Own Fault
TTITLE13=The Dream Of One Tato
EXTD=
EXTT0=
EXTT1=
EXTT2=
EXTT3=
EXTT4=
EXTT5=
EXTT6=
EXTT7=
EXTT8=
EXTT9=
EXTT10=
EXTT11=
EXTT12=
EXTT13=
PLAYORDER=
